# xmcd
#
# Track frame offsets:
#	150
#	16169
#	38526
#	53085
#	70027
#	83558
#	99326
#	115741
#	129129
#	142818
#	153330
#	166763
#	181855
#
# Disc length: 2654 seconds
#
# Revision: 0
# Processed by: cddbd v1.5.1PL2 Copyright (c) Steve Scherf et al.
# Submitted via: EasyCDDAExtractor 4.6.9.1
#
DISCID=860a5c0d
DTITLE=Kinleys - Kinleys II
DYEAR=2000
DGENRE=Country
TTITLE0=She Ain't The Girl For You
TTITLE1=I'm In
TTITLE2=You're Still Here
TTITLE3=If I Ever Needed You
TTITLE4=That's Gonna Mess You Up
TTITLE5=When The Blues And My Baby Collide
TTITLE6=Me Too
TTITLE7=Lovers
TTITLE8=I'm Me With You
TTITLE9=Yeah, Yeah, Yeah
TTITLE10=Here
TTITLE11=I Need You Now
TTITLE12=Somebody's Out There Watching
EXTD=
EXTT0=
EXTT1=
EXTT2=
EXTT3=
EXTT4=
EXTT5=
EXTT6=
EXTT7=
EXTT8=
EXTT9=
EXTT10=
EXTT11=
EXTT12=
PLAYORDER=
